<?xml version="1.0" encoding="UTF-8" standalone="no"?>
<!-- Created with Inkscape (http://www.inkscape.org/) -->

<svg
   xmlns:dc="http://purl.org/dc/elements/1.1/"
   xmlns:cc="http://creativecommons.org/ns#"
   xmlns:rdf="http://www.w3.org/1999/02/22-rdf-syntax-ns#"
   xmlns:svg="http://www.w3.org/2000/svg"
   xmlns="http://www.w3.org/2000/svg"
   xmlns:sodipodi="http://sodipodi.sourceforge.net/DTD/sodipodi-0.dtd"
   xmlns:inkscape="http://www.inkscape.org/namespaces/inkscape"
   width="41.039421"
   height="39.748322"
   id="svg4109"
   version="1.1"
   inkscape:version="0.48.3.1 r9886"
   sodipodi:docname="New document 20">
  <defs
     id="defs4111" />
  <sodipodi:namedview
     id="base"
     pagecolor="#ffffff"
     bordercolor="#666666"
     borderopacity="1.0"
     inkscape:pageopacity="0.0"
     inkscape:pageshadow="2"
     inkscape:zoom="0.35"
     inkscape:cx="184.09114"
     inkscape:cy="-374.41155"
     inkscape:document-units="px"
     inkscape:current-layer="layer1"
     showgrid="false"
     fit-margin-top="0"
     fit-margin-left="0"
     fit-margin-right="0"
     fit-margin-bottom="0"
     inkscape:window-width="1615"
     inkscape:window-height="1026"
     inkscape:window-x="65"
     inkscape:window-y="24"
     inkscape:window-maximized="1" />
  <metadata
     id="metadata4114">
    <rdf:RDF>
      <cc:Work
         rdf:about="">
        <dc:format>image/svg+xml</dc:format>
        <dc:type
           rdf:resource="http://purl.org/dc/dcmitype/StillImage" />
        <dc:title></dc:title>
      </cc:Work>
    </rdf:RDF>
  </metadata>
  <g
     inkscape:label="Layer 1"
     inkscape:groupmode="layer"
     id="layer1"
     transform="translate(-190.90886,-118.20231)">
    <path
       style="fill:#ffffff;fill-opacity:1;fill-rule:evenodd;stroke:none"
       d="m 202.50423,118.20231 -1.46841,2.93681 c -8.01326,0.8539 -9.88149,6.67985 -10.12696,11.3422 0.1117,7.03882 9.013,10.02569 9.013,10.02569 0,0 1.31356,3.71567 8.60791,6.12682 l -0.076,5.44324 c 0,0 -5.39889,0.48433 -10.07633,3.87356 l 11.97513,-0.076 2.15199,0 11.94981,0.076 c -4.67744,-3.38923 -10.05101,-3.87356 -10.05101,-3.87356 l -0.076,-5.44324 c 6.73171,-2.25771 8.60792,-6.12682 8.60792,-6.12682 0,0 8.90125,-2.98687 9.013,-10.02569 -0.24548,-4.66235 -2.11371,-10.4883 -10.12697,-11.3422 l -1.4684,-2.93681 c -2.64759,0.01 -5.41082,0.0542 -8.17753,0.076 -0.50714,-0.004 -0.98839,0.004 -1.49373,0 -2.76672,-0.0217 -5.52993,-0.0662 -8.17752,-0.076 z m -2.58237,5.44324 c 0.16115,-0.0112 0.32927,-0.009 0.48103,0 0,0 -4.15339,7.60113 -1.39247,16.15251 0,0 -7.2297,-2.60696 -5.62046,-9.19023 0.75739,-4.35646 4.11473,-6.79295 6.5319,-6.96228 z m 22.53248,0 c 2.42811,-0.14306 6.17974,2.31539 6.9876,6.96228 1.60924,6.58327 -5.59513,9.19023 -5.59513,9.19023 2.76092,-8.55138 -1.39247,-16.15251 -1.39247,-16.15251 z"
       id="path4155"
       inkscape:connector-curvature="0"
       sodipodi:nodetypes="cccccccccccccccccsccccccccccc" />
  </g>
</svg>
